<mxfile host="65bd71144e">
    <diagram id="5kC-DGUdwTY77b3jWmYY" name="ページ1">
        <mxGraphModel dx="1060" dy="457" grid="1" gridSize="10" guides="1" tooltips="1" connect="1" arrows="1" fold="1" page="1" pageScale="1" pageWidth="827" pageHeight="1169" math="0" shadow="0">
            <root>
                <mxCell id="0"/>
                <mxCell id="1" value="サブネット" style="locked=1;" parent="0"/>
                <mxCell id="3" value="Public subnet" style="points=[[0,0],[0.25,0],[0.5,0],[0.75,0],[1,0],[1,0.25],[1,0.5],[1,0.75],[1,1],[0.75,1],[0.5,1],[0.25,1],[0,1],[0,0.75],[0,0.5],[0,0.25]];outlineConnect=0;gradientColor=none;html=1;whiteSpace=wrap;fontSize=12;fontStyle=0;container=1;pointerEvents=0;collapsible=0;recursiveResize=0;shape=mxgraph.aws4.group;grIcon=mxgraph.aws4.group_security_group;grStroke=0;strokeColor=#7AA116;fillColor=#F2F6E8;verticalAlign=top;align=left;spacingLeft=30;fontColor=#248814;dashed=0;" parent="1" vertex="1">
                    <mxGeometry x="120" y="220" width="130" height="130" as="geometry"/>
                </mxCell>
                <mxCell id="4" value="Private subnet" style="points=[[0,0],[0.25,0],[0.5,0],[0.75,0],[1,0],[1,0.25],[1,0.5],[1,0.75],[1,1],[0.75,1],[0.5,1],[0.25,1],[0,1],[0,0.75],[0,0.5],[0,0.25]];outlineConnect=0;gradientColor=none;html=1;whiteSpace=wrap;fontSize=12;fontStyle=0;container=1;pointerEvents=0;collapsible=0;recursiveResize=0;shape=mxgraph.aws4.group;grIcon=mxgraph.aws4.group_security_group;grStroke=0;strokeColor=#00A4A6;fillColor=#E6F6F7;verticalAlign=top;align=left;spacingLeft=30;fontColor=#147EBA;dashed=0;" parent="1" vertex="1">
                    <mxGeometry x="300" y="220" width="370" height="130" as="geometry"/>
                </mxCell>
                <mxCell id="5" value="サービス" style="" parent="0"/>
                <mxCell id="7" value="ECSサービス" style="outlineConnect=0;dashed=0;verticalLabelPosition=bottom;verticalAlign=top;align=center;html=1;shape=mxgraph.aws3.ecs;fillColor=#F58534;gradientColor=none;" parent="5" vertex="1">
                    <mxGeometry x="330" y="260" width="72" height="67.5" as="geometry"/>
                </mxCell>
                <mxCell id="2" value="ALB" style="outlineConnect=0;dashed=0;verticalLabelPosition=bottom;verticalAlign=top;align=center;html=1;shape=mxgraph.aws3.application_load_balancer;fillColor=#F58534;gradientColor=none;" parent="5" vertex="1">
                    <mxGeometry x="150" y="260" width="69" height="72" as="geometry"/>
                </mxCell>
                <mxCell id="8" value="RDS" style="sketch=0;points=[[0,0,0],[0.25,0,0],[0.5,0,0],[0.75,0,0],[1,0,0],[0,1,0],[0.25,1,0],[0.5,1,0],[0.75,1,0],[1,1,0],[0,0.25,0],[0,0.5,0],[0,0.75,0],[1,0.25,0],[1,0.5,0],[1,0.75,0]];outlineConnect=0;fontColor=#232F3E;fillColor=#C925D1;strokeColor=#ffffff;dashed=0;verticalLabelPosition=bottom;verticalAlign=top;align=center;html=1;fontSize=12;fontStyle=0;aspect=fixed;shape=mxgraph.aws4.resourceIcon;resIcon=mxgraph.aws4.rds;" parent="5" vertex="1">
                    <mxGeometry x="580" y="249.5" width="78" height="78" as="geometry"/>
                </mxCell>
                <mxCell id="20" value="" style="edgeStyle=none;orthogonalLoop=1;jettySize=auto;html=1;" edge="1" parent="5">
                    <mxGeometry width="100" relative="1" as="geometry">
                        <mxPoint x="324" y="295.76" as="sourcePoint"/>
                        <mxPoint x="224" y="295.76" as="targetPoint"/>
                        <Array as="points"/>
                    </mxGeometry>
                </mxCell>
                <mxCell id="21" value="" style="edgeStyle=none;orthogonalLoop=1;jettySize=auto;html=1;" edge="1" parent="5">
                    <mxGeometry width="100" relative="1" as="geometry">
                        <mxPoint x="570" y="295" as="sourcePoint"/>
                        <mxPoint x="405" y="294.51" as="targetPoint"/>
                        <Array as="points"/>
                    </mxGeometry>
                </mxCell>
                <mxCell id="24" value="" style="group;rotation=-15;" vertex="1" connectable="0" parent="5">
                    <mxGeometry x="75" y="230" width="70" height="139.24" as="geometry"/>
                </mxCell>
                <mxCell id="22" value="" style="edgeStyle=none;orthogonalLoop=1;jettySize=auto;html=1;" edge="1" parent="24">
                    <mxGeometry width="100" relative="1" as="geometry">
                        <mxPoint x="70" y="66" as="sourcePoint"/>
                        <mxPoint x="-7" y="9" as="targetPoint"/>
                        <Array as="points"/>
                    </mxGeometry>
                </mxCell>
                <mxCell id="23" value="" style="edgeStyle=none;orthogonalLoop=1;jettySize=auto;html=1;" edge="1" parent="24">
                    <mxGeometry width="100" relative="1" as="geometry">
                        <mxPoint x="70" y="66" as="sourcePoint"/>
                        <mxPoint x="10" y="140" as="targetPoint"/>
                        <Array as="points"/>
                    </mxGeometry>
                </mxCell>
                <mxCell id="25" value="0.0.0.0&lt;div&gt;443番(HTTPS)&lt;/div&gt;" style="text;html=1;align=center;verticalAlign=middle;resizable=0;points=[];autosize=1;strokeColor=none;fillColor=none;" vertex="1" parent="24">
                    <mxGeometry x="-45" y="49.620000000000005" width="100" height="40" as="geometry"/>
                </mxCell>
                <mxCell id="31" value="SG(セキュリティグループ)のインバウンドルール" style="text;strokeColor=#d6b656;align=center;fillColor=#fff2cc;html=1;verticalAlign=middle;whiteSpace=wrap;rounded=0;fontSize=18;" vertex="1" parent="5">
                    <mxGeometry x="187" y="170" width="403" height="30" as="geometry"/>
                </mxCell>
                <mxCell id="33" value="ALBのSG&lt;div&gt;8080番(HTTP)&lt;/div&gt;" style="text;html=1;align=center;verticalAlign=middle;resizable=0;points=[];autosize=1;strokeColor=none;fillColor=none;" vertex="1" parent="5">
                    <mxGeometry x="230" y="260" width="100" height="40" as="geometry"/>
                </mxCell>
                <mxCell id="34" value="ECSサービスのSG&lt;div&gt;5432番&lt;/div&gt;&lt;div&gt;(Postgresのデフォルトポート)&lt;/div&gt;" style="text;html=1;align=center;verticalAlign=middle;resizable=0;points=[];autosize=1;strokeColor=none;fillColor=none;" vertex="1" parent="5">
                    <mxGeometry x="400" y="239.5" width="190" height="60" as="geometry"/>
                </mxCell>
            </root>
        </mxGraphModel>
    </diagram>
</mxfile>